<?xml version="1.0" encoding="UTF-8"?>
<svg xmlns="http://www.w3.org/2000/svg" version="1.1" width="200" height="200" viewBox="0 0 200 200"><rect x="0" y="0" width="200" height="200" fill="#ffffff"/><g transform="scale(5.405)"><g transform="translate(0,0)"><path fill-rule="evenodd" d="M11 0L11 1L9 1L9 2L11 2L11 1L14 1L14 2L15 2L15 0ZM17 0L17 1L16 1L16 3L15 3L15 4L16 4L16 5L17 5L17 4L18 4L18 3L20 3L20 2L21 2L21 4L19 4L19 5L18 5L18 8L17 8L17 9L16 9L16 8L15 8L15 6L14 6L14 8L13 8L13 9L12 9L12 7L13 7L13 5L14 5L14 3L13 3L13 2L12 2L12 4L13 4L13 5L11 5L11 6L10 6L10 8L9 8L9 9L8 9L8 8L5 8L5 9L2 9L2 8L0 8L0 11L1 11L1 12L3 12L3 13L0 13L0 16L1 16L1 17L3 17L3 18L2 18L2 19L0 19L0 20L1 20L1 21L0 21L0 24L2 24L2 26L5 26L5 28L4 28L4 27L2 27L2 28L3 28L3 29L5 29L5 28L6 28L6 29L8 29L8 32L10 32L10 31L9 31L9 29L10 29L10 28L11 28L11 26L10 26L10 25L11 25L11 24L12 24L12 23L13 23L13 22L11 22L11 20L10 20L10 22L9 22L9 21L8 21L8 22L6 22L6 23L5 23L5 22L4 22L4 21L5 21L5 18L4 18L4 17L5 17L5 14L4 14L4 15L3 15L3 13L4 13L4 11L7 11L7 12L5 12L5 13L7 13L7 14L6 14L6 15L7 15L7 14L8 14L8 15L9 15L9 14L10 14L10 15L11 15L11 16L9 16L9 17L10 17L10 18L11 18L11 19L12 19L12 21L13 21L13 20L14 20L14 22L15 22L15 23L14 23L14 24L13 24L13 25L12 25L12 26L13 26L13 27L12 27L12 29L13 29L13 28L14 28L14 29L15 29L15 30L12 30L12 31L11 31L11 33L10 33L10 36L9 36L9 35L8 35L8 37L14 37L14 35L17 35L17 34L16 34L16 33L18 33L18 32L19 32L19 34L20 34L20 36L19 36L19 35L18 35L18 36L19 36L19 37L20 37L20 36L21 36L21 34L20 34L20 32L21 32L21 31L23 31L23 32L22 32L22 33L23 33L23 32L24 32L24 31L26 31L26 32L25 32L25 34L26 34L26 35L27 35L27 36L28 36L28 37L29 37L29 35L28 35L28 33L29 33L29 34L31 34L31 35L30 35L30 37L31 37L31 35L32 35L32 34L33 34L33 30L34 30L34 31L35 31L35 30L36 30L36 31L37 31L37 25L36 25L36 24L37 24L37 20L36 20L36 19L37 19L37 17L36 17L36 19L35 19L35 17L34 17L34 16L36 16L36 15L37 15L37 9L34 9L34 8L32 8L32 9L31 9L31 10L27 10L27 9L28 9L28 8L27 8L27 6L26 6L26 8L24 8L24 7L25 7L25 6L24 6L24 7L23 7L23 6L22 6L22 7L23 7L23 8L22 8L22 9L23 9L23 10L21 10L21 11L19 11L19 10L20 10L20 8L19 8L19 5L20 5L20 7L21 7L21 5L24 5L24 4L26 4L26 3L27 3L27 0L26 0L26 3L23 3L23 1L22 1L22 0L20 0L20 2L19 2L19 0ZM17 1L17 3L18 3L18 1ZM21 1L21 2L22 2L22 1ZM24 1L24 2L25 2L25 1ZM28 1L28 5L29 5L29 1ZM8 3L8 5L10 5L10 4L9 4L9 3ZM22 3L22 4L23 4L23 3ZM8 6L8 7L9 7L9 6ZM11 6L11 7L12 7L12 6ZM16 6L16 7L17 7L17 6ZM28 6L28 7L29 7L29 6ZM10 8L10 9L9 9L9 10L8 10L8 12L7 12L7 13L8 13L8 12L9 12L9 10L10 10L10 12L12 12L12 11L13 11L13 13L11 13L11 14L13 14L13 13L14 13L14 14L15 14L15 13L14 13L14 12L16 12L16 13L17 13L17 15L15 15L15 16L14 16L14 15L12 15L12 17L11 17L11 18L12 18L12 19L14 19L14 20L16 20L16 23L15 23L15 24L17 24L17 25L16 25L16 26L17 26L17 27L15 27L15 29L17 29L17 28L18 28L18 29L20 29L20 28L21 28L21 30L25 30L25 29L24 29L24 28L31 28L31 27L29 27L29 26L31 26L31 25L32 25L32 27L33 27L33 29L34 29L34 30L35 30L35 29L34 29L34 27L33 27L33 26L34 26L34 25L35 25L35 26L36 26L36 25L35 25L35 22L36 22L36 20L35 20L35 19L34 19L34 17L33 17L33 16L32 16L32 14L33 14L33 15L34 15L34 14L33 14L33 13L34 13L34 12L35 12L35 14L36 14L36 12L35 12L35 10L34 10L34 12L32 12L32 10L31 10L31 13L30 13L30 11L28 11L28 15L27 15L27 16L26 16L26 14L27 14L27 12L26 12L26 11L27 11L27 10L25 10L25 9L24 9L24 10L23 10L23 11L21 11L21 14L22 14L22 15L20 15L20 14L19 14L19 15L18 15L18 13L20 13L20 12L18 12L18 11L17 11L17 10L19 10L19 8L18 8L18 9L17 9L17 10L16 10L16 11L14 11L14 10L15 10L15 9L13 9L13 10L12 10L12 9L11 9L11 8ZM5 9L5 10L7 10L7 9ZM1 10L1 11L2 11L2 10ZM24 10L24 11L23 11L23 13L24 13L24 11L25 11L25 10ZM16 11L16 12L17 12L17 11ZM25 13L25 14L24 14L24 15L23 15L23 16L22 16L22 18L21 18L21 17L20 17L20 16L19 16L19 17L18 17L18 16L15 16L15 19L16 19L16 18L17 18L17 19L18 19L18 18L19 18L19 22L17 22L17 23L19 23L19 22L20 22L20 20L21 20L21 19L22 19L22 18L23 18L23 19L25 19L25 18L26 18L26 16L25 16L25 14L26 14L26 13ZM30 14L30 15L28 15L28 16L27 16L27 19L29 19L29 18L30 18L30 19L31 19L31 20L25 20L25 21L26 21L26 22L24 22L24 23L23 23L23 20L22 20L22 22L21 22L21 23L22 23L22 24L24 24L24 25L25 25L25 27L28 27L28 22L29 22L29 24L30 24L30 25L31 25L31 23L34 23L34 22L35 22L35 21L34 21L34 19L33 19L33 18L32 18L32 16L31 16L31 14ZM1 15L1 16L3 16L3 15ZM6 16L6 17L7 17L7 16ZM24 16L24 17L25 17L25 16ZM12 17L12 18L14 18L14 17ZM17 17L17 18L18 18L18 17ZM28 17L28 18L29 18L29 17ZM30 17L30 18L31 18L31 19L32 19L32 20L31 20L31 21L29 21L29 22L31 22L31 21L33 21L33 19L32 19L32 18L31 18L31 17ZM3 18L3 20L4 20L4 18ZM6 18L6 19L8 19L8 20L9 20L9 18ZM20 18L20 19L21 19L21 18ZM6 20L6 21L7 21L7 20ZM17 20L17 21L18 21L18 20ZM2 21L2 22L1 22L1 23L4 23L4 22L3 22L3 21ZM10 22L10 24L9 24L9 23L6 23L6 24L7 24L7 25L6 25L6 26L7 26L7 27L6 27L6 28L9 28L9 25L10 25L10 24L11 24L11 22ZM26 22L26 23L24 23L24 24L25 24L25 25L26 25L26 26L27 26L27 24L26 24L26 23L27 23L27 22ZM3 24L3 25L5 25L5 24ZM8 24L8 25L7 25L7 26L8 26L8 25L9 25L9 24ZM19 24L19 25L18 25L18 26L20 26L20 25L21 25L21 27L23 27L23 26L22 26L22 25L21 25L21 24ZM32 24L32 25L33 25L33 24ZM0 25L0 29L1 29L1 25ZM35 27L35 28L36 28L36 27ZM26 29L26 31L28 31L28 30L27 30L27 29ZM29 29L29 32L32 32L32 29ZM16 30L16 31L15 31L15 32L14 32L14 31L12 31L12 33L11 33L11 36L12 36L12 35L13 35L13 34L12 34L12 33L14 33L14 34L15 34L15 32L16 32L16 31L17 31L17 32L18 32L18 31L19 31L19 30ZM30 30L30 31L31 31L31 30ZM34 32L34 35L33 35L33 36L34 36L34 35L36 35L36 37L37 37L37 33L35 33L35 32ZM26 33L26 34L27 34L27 33ZM22 35L22 36L23 36L23 37L26 37L26 36L23 36L23 35ZM16 36L16 37L17 37L17 36ZM0 0L0 7L7 7L7 0ZM1 1L1 6L6 6L6 1ZM2 2L2 5L5 5L5 2ZM30 0L30 7L37 7L37 0ZM31 1L31 6L36 6L36 1ZM32 2L32 5L35 5L35 2ZM0 30L0 37L7 37L7 30ZM1 31L1 36L6 36L6 31ZM2 32L2 35L5 35L5 32Z" fill="#000000"/></g></g></svg>
